<?xml version="1.0" encoding="utf-8" ?>
<svg xmlns="http://www.w3.org/2000/svg" xmlns:ev="http://www.w3.org/2001/xml-events" xmlns:xlink="http://www.w3.org/1999/xlink" baseProfile="full" height="400" version="1.1" width="1000">
  <defs>
    <style type="text/css"><![CDATA[.background path {fill: #808080; fill-opacity: 0}.background path:nth-child(odd) {fill-opacity: .1}.x-regions rect {fill: yellow; stroke: black; opacity: 0.5}.axes {font-size: 14px}.x-axis .tick .lab {font-weight: bold; dominant-baseline: hanging}.axes, .tree {font-size: 14px; text-anchor: middle}.axes line, .edge {stroke: black; fill: none}.axes .ax-skip {stroke-dasharray: 4}.y-axis .grid {stroke: #FAFAFA}.node > .sym {fill: black; stroke: none}.site > .sym {stroke: black}.mut text {fill: red; font-style: italic}.mut.extra text {fill: hotpink}.mut line {fill: none; stroke: none}.mut .sym {fill: none; stroke: red}.mut.extra .sym {stroke: hotpink}.node .mut .sym {stroke-width: 1.5px}.tree text, .tree-sequence text {dominant-baseline: central}.plotbox .lab.lft {text-anchor: end}.plotbox .lab.rgt {text-anchor: start}.polytomy line {stroke: black; stroke-dasharray: 1px, 1px}.polytomy text {paint-order:stroke;stroke-width:0.3em;stroke:white}.node > .lab {font-size: 80%}]]></style>
  </defs>
  <g class="tree-sequence">
    <g class="axes">
      <g class="y-axis">
        <g class="title" transform="translate(0 184.1)">
          <text class="lab" text-anchor="middle" transform="translate(11) rotate(-90)">Time ago (generations)</text>
        </g>
        <line class="ax-line" x1="56.8" x2="56.8" y1="358.2" y2="10"/>
        <g class="ticks">
          <g class="tick" transform="translate(56.8 358.2)">
            <line x1="0" x2="-5" y1="0" y2="0"/>
            <g transform="translate(-6 0)">
              <text class="lab" text-anchor="end">0</text>
            </g>
          </g>
          <g class="tick" transform="translate(56.8 275.35)">
            <line x1="0" x2="-5" y1="0" y2="0"/>
            <g transform="translate(-6 0)">
              <text class="lab" text-anchor="end">1</text>
            </g>
          </g>
          <g class="tick" transform="translate(56.8 192.5)">
            <line x1="0" x2="-5" y1="0" y2="0"/>
            <g transform="translate(-6 0)">
              <text class="lab" text-anchor="end">2</text>
            </g>
          </g>
          <g class="tick" transform="translate(56.8 109.65)">
            <line x1="0" x2="-5" y1="0" y2="0"/>
            <g transform="translate(-6 0)">
              <text class="lab" text-anchor="end">3</text>
            </g>
          </g>
          <g class="tick" transform="translate(56.8 26.8)">
            <line x1="0" x2="-5" y1="0" y2="0"/>
            <g transform="translate(-6 0)">
              <text class="lab" text-anchor="end">4</text>
            </g>
          </g>
        </g>
      </g>
    </g>
    <g class="plotbox trees">
      <g class="tree t0" transform="translate(56.8 0)">
        <g class="plotbox">
          <g class="c2 i31 node n17 p0 root" transform="translate(342 26.8)">
            <g class="a17 c4 i52 node n14 p0" transform="translate(-174.8 248.55)">
              <g class="a14 i54 leaf node n0 p0 sample" transform="translate(-110.4 82.85)">
                <path class="edge" d="M 0 0 V -82.85 H 110.4"/>
                <rect class="sym" height="6" width="6" x="-3" y="-3"/>
                <text class="lab" transform="translate(0 11)">55: 109</text>
              </g>
              <g class="a14 i55 leaf node n2 p0 sample" transform="translate(-36.8 82.85)">
                <path class="edge" d="M 0 0 V -82.85 H 36.8"/>
                <rect class="sym" height="6" width="6" x="-3" y="-3"/>
                <text class="lab" transform="translate(0 11)">56: 111</text>
              </g>
              <g class="a14 i56 leaf node n4 p0 sample" transform="translate(36.8 82.85)">
                <path class="edge" d="M 0 0 V -82.85 H -36.8"/>
                <rect class="sym" height="6" width="6" x="-3" y="-3"/>
                <text class="lab" transform="translate(0 11)">57: 113</text>
              </g>
              <g class="a14 i57 leaf node n6 p0 sample" transform="translate(110.4 82.85)">
                <path class="edge" d="M 0 0 V -82.85 H -110.4"/>
                <rect class="sym" height="6" width="6" x="-3" y="-3"/>
                <text class="lab" transform="translate(0 11)">58: 115</text>
              </g>
              <path class="edge" d="M 0 0 V -248.55 H 174.8"/>
              <circle class="sym" cx="0" cy="0" r="3"/>
              <text class="lab lft" transform="translate(-3 -7)">53: 106</text>
            </g>
            <g class="a17 c2 i46 node n15 p0" transform="translate(174.8 165.7)">
              <g class="a15 c2 i48 node n12 p0" transform="translate(92 82.85)">
                <g class="a12 i58 leaf node n9 p0 sample" transform="translate(-36.8 82.85)">
                  <path class="edge" d="M 0 0 V -82.85 H 36.8"/>
                  <rect class="sym" height="6" width="6" x="-3" y="-3"/>
                  <text class="lab" transform="translate(0 11)">59: 118</text>
                </g>
                <g class="a12 i59 leaf node n11 p0 sample" transform="translate(36.8 82.85)">
                  <path class="edge" d="M 0 0 V -82.85 H -36.8"/>
                  <rect class="sym" height="6" width="6" x="-3" y="-3"/>
                  <text class="lab" transform="translate(0 11)">60: 120</text>
                </g>
                <path class="edge" d="M 0 0 V -82.85 H -92"/>
                <circle class="sym" cx="0" cy="0" r="3"/>
                <text class="lab rgt" transform="translate(3 -7)">49: 97</text>
              </g>
              <g class="a15 c3 i49 node n13 p0" transform="translate(-92 82.85)">
                <g class="a13 i54 leaf node n1 p0 sample" transform="translate(-73.6 82.85)">
                  <path class="edge" d="M 0 0 V -82.85 H 73.6"/>
                  <rect class="sym" height="6" width="6" x="-3" y="-3"/>
                  <text class="lab" transform="translate(0 11)">55: 110</text>
                </g>
                <g class="a13 i55 leaf node n3 p0 sample" transform="translate(0.0 82.85)">
                  <path class="edge" d="M 0 0 V -82.85 H 0.0"/>
                  <rect class="sym" height="6" width="6" x="-3" y="-3"/>
                  <text class="lab" transform="translate(0 11)">56: 112</text>
                </g>
                <g class="a13 i56 leaf node n5 p0 sample" transform="translate(73.6 82.85)">
                  <path class="edge" d="M 0 0 V -82.85 H -73.6"/>
                  <rect class="sym" height="6" width="6" x="-3" y="-3"/>
                  <text class="lab" transform="translate(0 11)">57: 114</text>
                </g>
                <path class="edge" d="M 0 0 V -82.85 H 92"/>
                <circle class="sym" cx="0" cy="0" r="3"/>
                <text class="lab lft" transform="translate(-3 -7)">50: 99</text>
              </g>
              <path class="edge" d="M 0 0 V -165.7 H -174.8"/>
              <circle class="sym" cx="0" cy="0" r="3"/>
              <text class="lab rgt" transform="translate(3 -7)">47: 93</text>
            </g>
            <circle class="sym" cx="0" cy="0" r="3"/>
            <text class="lab" transform="translate(0 -11)">32: 64</text>
          </g>
          <g class="c2 i41 node n16 p0 root" transform="translate(756 109.65)">
            <g class="a16 i57 leaf node n7 p0 sample" transform="translate(-36.8 248.55)">
              <path class="edge" d="M 0 0 V -248.55 H 36.8"/>
              <rect class="sym" height="6" width="6" x="-3" y="-3"/>
              <text class="lab" transform="translate(0 11)">58: 116</text>
            </g>
            <g class="a16 i59 leaf node n10 p0 sample" transform="translate(36.8 248.55)">
              <path class="edge" d="M 0 0 V -248.55 H -36.8"/>
              <rect class="sym" height="6" width="6" x="-3" y="-3"/>
              <text class="lab" transform="translate(0 11)">60: 119</text>
            </g>
            <circle class="sym" cx="0" cy="0" r="3"/>
            <text class="lab" transform="translate(0 -11)">42: 83</text>
          </g>
          <g class="i58 leaf node n8 p0 root sample" transform="translate(866.4 358.2)">
            <rect class="sym" height="6" width="6" x="-3" y="-3"/>
            <text class="lab" transform="translate(0 11)">59: 117</text>
          </g>
        </g>
      </g>
    </g>
  </g>
</svg>
