<?xml version="1.0" encoding="utf-8" ?>
<svg xmlns="http://www.w3.org/2000/svg" xmlns:ev="http://www.w3.org/2001/xml-events" xmlns:xlink="http://www.w3.org/1999/xlink" baseProfile="full" height="400" version="1.1" width="1000">
  <defs>
    <style type="text/css"><![CDATA[.background path {fill: #808080; fill-opacity: 0}.background path:nth-child(odd) {fill-opacity: .1}.x-regions rect {fill: yellow; stroke: black; opacity: 0.5}.axes {font-size: 14px}.x-axis .tick .lab {font-weight: bold; dominant-baseline: hanging}.axes, .tree {font-size: 14px; text-anchor: middle}.axes line, .edge {stroke: black; fill: none}.axes .ax-skip {stroke-dasharray: 4}.y-axis .grid {stroke: #FAFAFA}.node > .sym {fill: black; stroke: none}.site > .sym {stroke: black}.mut text {fill: red; font-style: italic}.mut.extra text {fill: hotpink}.mut line {fill: none; stroke: none}.mut .sym {fill: none; stroke: red}.mut.extra .sym {stroke: hotpink}.node .mut .sym {stroke-width: 1.5px}.tree text, .tree-sequence text {dominant-baseline: central}.plotbox .lab.lft {text-anchor: end}.plotbox .lab.rgt {text-anchor: start}.polytomy line {stroke: black; stroke-dasharray: 1px, 1px}.polytomy text {paint-order:stroke;stroke-width:0.3em;stroke:white}.node > .lab {font-size: 80%}]]></style>
  </defs>
  <g class="tree-sequence">
    <g class="axes">
      <g class="y-axis">
        <g class="title" transform="translate(0 184.1)">
          <text class="lab" text-anchor="middle" transform="translate(11) rotate(-90)">Time ago (generations)</text>
        </g>
        <line class="ax-line" x1="56.8" x2="56.8" y1="358.2" y2="10"/>
        <g class="ticks">
          <g class="tick" transform="translate(56.8 358.2)">
            <line x1="0" x2="-5" y1="0" y2="0"/>
            <g transform="translate(-6 0)">
              <text class="lab" text-anchor="end">0</text>
            </g>
          </g>
          <g class="tick" transform="translate(56.8 247.733)">
            <line x1="0" x2="-5" y1="0" y2="0"/>
            <g transform="translate(-6 0)">
              <text class="lab" text-anchor="end">1</text>
            </g>
          </g>
          <g class="tick" transform="translate(56.8 137.267)">
            <line x1="0" x2="-5" y1="0" y2="0"/>
            <g transform="translate(-6 0)">
              <text class="lab" text-anchor="end">2</text>
            </g>
          </g>
          <g class="tick" transform="translate(56.8 26.8)">
            <line x1="0" x2="-5" y1="0" y2="0"/>
            <g transform="translate(-6 0)">
              <text class="lab" text-anchor="end">3</text>
            </g>
          </g>
        </g>
      </g>
    </g>
    <g class="plotbox trees">
      <g class="tree t0" transform="translate(56.8 0)">
        <g class="plotbox">
          <g class="c1 i1 node n2 p0 root" transform="translate(75.2 26.8)">
            <g class="a2 c1 i4 node n9 p0" transform="translate(0.0 110.467)">
              <g class="a9 c1 i8 node n17 p0" transform="translate(0.0 110.467)">
                <g class="a17 i12 leaf node n24 p0 sample" transform="translate(0.0 110.467)">
                  <path class="edge" d="M 0 0 V -110.467 H 0.0"/>
                  <rect class="sym" height="6" width="6" x="-3" y="-3"/>
                  <text class="lab" transform="translate(0 11)">13: 25</text>
                </g>
                <path class="edge" d="M 0 0 V -110.467 H 0.0"/>
                <circle class="sym" cx="0" cy="0" r="3"/>
                <text class="lab lft" transform="translate(-3 -7)">9: 18</text>
              </g>
              <path class="edge" d="M 0 0 V -110.467 H 0.0"/>
              <circle class="sym" cx="0" cy="0" r="3"/>
              <text class="lab lft" transform="translate(-3 -7)">5: 10</text>
            </g>
            <circle class="sym" cx="0" cy="0" r="3"/>
            <text class="lab" transform="translate(0 -11)">2: 3</text>
          </g>
          <g class="c1 i2 node n4 p0 root" transform="translate(268.4 26.8)">
            <g class="a4 c2 i7 node n14 p0" transform="translate(0.0 110.467)">
              <g class="a14 c1 i9 node n18 p0" transform="translate(-82.8 110.467)">
                <g class="a18 i12 leaf node n25 p0 sample" transform="translate(0.0 110.467)">
                  <path class="edge" d="M 0 0 V -110.467 H 0.0"/>
                  <rect class="sym" height="6" width="6" x="-3" y="-3"/>
                  <text class="lab" transform="translate(0 11)">13: 26</text>
                </g>
                <path class="edge" d="M 0 0 V -110.467 H 82.8"/>
                <circle class="sym" cx="0" cy="0" r="3"/>
                <text class="lab lft" transform="translate(-3 -7)">10: 19</text>
              </g>
              <g class="a14 c2 i11 node n22 p0" transform="translate(82.8 110.467)">
                <g class="a22 i13 leaf node n27 p0 sample" transform="translate(-55.2 110.467)">
                  <path class="edge" d="M 0 0 V -110.467 H 55.2"/>
                  <rect class="sym" height="6" width="6" x="-3" y="-3"/>
                  <text class="lab" transform="translate(0 11)">14: 28</text>
                </g>
                <g class="a22 i14 leaf node n29 p0 sample" transform="translate(55.2 110.467)">
                  <path class="edge" d="M 0 0 V -110.467 H -55.2"/>
                  <rect class="sym" height="6" width="6" x="-3" y="-3"/>
                  <text class="lab" transform="translate(0 11)">15: 30</text>
                </g>
                <path class="edge" d="M 0 0 V -110.467 H -82.8"/>
                <circle class="sym" cx="0" cy="0" r="3"/>
                <text class="lab rgt" transform="translate(3 -7)">12: 23</text>
              </g>
              <path class="edge" d="M 0 0 V -110.467 H 0.0"/>
              <circle class="sym" cx="0" cy="0" r="3"/>
              <text class="lab lft" transform="translate(-3 -7)">8: 15</text>
            </g>
            <circle class="sym" cx="0" cy="0" r="3"/>
            <text class="lab" transform="translate(0 -11)">3: 5</text>
          </g>
          <g class="c1 i3 node n6 p0 root" transform="translate(737.6 26.8)">
            <g class="a6 c2 i4 node n8 p0" transform="translate(0.0 110.467)">
              <g class="a8 c3 i10 node n21 p0" transform="translate(-110.4 110.467)">
                <g class="a21 i13 leaf node n26 p0 sample" transform="translate(-110.4 110.467)">
                  <path class="edge" d="M 0 0 V -110.467 H 110.4"/>
                  <rect class="sym" height="6" width="6" x="-3" y="-3"/>
                  <text class="lab" transform="translate(0 11)">14: 27</text>
                </g>
                <g class="a21 i14 leaf node n28 p0 sample" transform="translate(0.0 110.467)">
                  <path class="edge" d="M 0 0 V -110.467 H 0.0"/>
                  <rect class="sym" height="6" width="6" x="-3" y="-3"/>
                  <text class="lab" transform="translate(0 11)">15: 29</text>
                </g>
                <g class="a21 i15 leaf node n30 p0 sample" transform="translate(110.4 110.467)">
                  <path class="edge" d="M 0 0 V -110.467 H -110.4"/>
                  <rect class="sym" height="6" width="6" x="-3" y="-3"/>
                  <text class="lab" transform="translate(0 11)">16: 31</text>
                </g>
                <path class="edge" d="M 0 0 V -110.467 H 110.4"/>
                <circle class="sym" cx="0" cy="0" r="3"/>
                <text class="lab lft" transform="translate(-3 -7)">11: 22</text>
              </g>
              <g class="a8 c1 i11 node n23 p0" transform="translate(110.4 110.467)">
                <g class="a23 i15 leaf node n31 p0 sample" transform="translate(0.0 110.467)">
                  <path class="edge" d="M 0 0 V -110.467 H 0.0"/>
                  <rect class="sym" height="6" width="6" x="-3" y="-3"/>
                  <text class="lab" transform="translate(0 11)">16: 32</text>
                </g>
                <path class="edge" d="M 0 0 V -110.467 H -110.4"/>
                <circle class="sym" cx="0" cy="0" r="3"/>
                <text class="lab rgt" transform="translate(3 -7)">12: 24</text>
              </g>
              <path class="edge" d="M 0 0 V -110.467 H 0.0"/>
              <circle class="sym" cx="0" cy="0" r="3"/>
              <text class="lab lft" transform="translate(-3 -7)">5: 9</text>
            </g>
            <circle class="sym" cx="0" cy="0" r="3"/>
            <text class="lab" transform="translate(0 -11)">4: 7</text>
          </g>
        </g>
      </g>
    </g>
  </g>
</svg>
